<svg version="1.2" baseProfile="tiny-ps" xmlns="http://www.w3.org/2000/svg" width="94" height="23"><style/><g id="Startup PSD"><g id="Home Section"><g id="Header Navigation"><g id="Logo"><path id="Startup" fill-rule="evenodd" d="M.5 16.24l1.32-2.93c1.42 1.03 3.53 1.75 5.54 1.75 2.3 0 3.24-.77 3.24-1.8 0-3.14-9.77-.98-9.77-7.22C.83 3.18 3.13.81 7.91.81c2.11 0 4.27.5 5.83 1.49l-1.2 2.95c-1.56-.89-3.17-1.32-4.66-1.32-2.3 0-3.19.86-3.19 1.92 0 3.1 9.77.96 9.77 7.13 0 2.81-2.33 5.21-7.13 5.21-2.66 0-5.35-.79-6.84-1.94zm24.7 1.03c-.77.55-1.9.82-3.05.82-3.05 0-4.82-1.56-4.82-4.63v-5.3h-1.99V5.28h1.99V2.14h3.74v3.14h3.22v2.88h-3.22v5.26c0 1.1.6 1.7 1.61 1.7.55 0 1.1-.17 1.51-.48l1.01 2.64zm13.54-6.74v7.37h-3.5v-1.61c-.7 1.18-2.04 1.8-3.94 1.8-3.02 0-4.82-1.68-4.82-3.91 0-2.28 1.61-3.86 5.54-3.86H35c0-1.61-.96-2.54-2.98-2.54-1.37 0-2.78.46-3.72 1.2l-1.34-2.62c1.42-1.01 3.5-1.56 5.57-1.56 3.94 0 6.22 1.82 6.22 5.74zM35 13.82V12.5h-2.57c-1.75 0-2.3.65-2.3 1.51 0 .94.79 1.56 2.11 1.56 1.25 0 2.33-.58 2.76-1.75zM50.14 4.8v3.46c-.31-.02-.55-.05-.84-.05-2.06 0-3.43 1.13-3.43 3.6v6.1h-3.74V5h3.58v1.7c.91-1.25 2.45-1.9 4.44-1.9zm11.02 12.48c-.77.55-1.9.82-3.05.82-3.05 0-4.82-1.56-4.82-4.63v-5.3H51.3V5.29h1.99V2.15h3.74v3.14h3.22v2.88h-3.22v5.26c0 1.1.6 1.7 1.61 1.7.55 0 1.1-.17 1.51-.48l1.01 2.64zM76.28 4.99V17.9h-3.55v-1.54c-.98 1.13-2.42 1.73-4.01 1.73-3.24 0-5.52-1.82-5.52-5.81v-7.3h3.74v6.74c0 2.16.96 3.12 2.62 3.12 1.73 0 2.98-1.1 2.98-3.48V4.98h3.74zm17.54 6.46c0 4.06-2.81 6.65-6.43 6.65-1.61 0-2.93-.5-3.89-1.56v6.02h-3.74V4.99h3.58v1.49c.94-1.13 2.33-1.68 4.06-1.68 3.62 0 6.43 2.59 6.43 6.65zm-3.79 0c0-2.23-1.42-3.58-3.29-3.58s-3.29 1.34-3.29 3.58c0 2.23 1.42 3.58 3.29 3.58s3.29-1.34 3.29-3.58z" fill="#fff"/></g></g></g></g></svg>