<svg version="1.2" baseProfile="tiny-ps" xmlns="http://www.w3.org/2000/svg" viewBox="0 0 94 23" width="94" height="23">
	<title>Startup PSD</title>
	<style>
		tspan { white-space:pre }
		.s0 { fill: #ffffff } 
	</style>
	<g id="Startup PSD">
		<g id="Home Section">
			<g id="Header Navigation">
				<g id="Logo">
					<path id="Startup" fill-rule="evenodd" class="s0" d="m0.5 16.24l1.32-2.93c1.42 1.03 3.53 1.75 5.54 1.75c2.3 0 3.24-0.77 3.24-1.8c0-3.14-9.77-0.98-9.77-7.22c0-2.86 2.3-5.23 7.08-5.23c2.11 0 4.27 0.5 5.83 1.49l-1.2 2.95c-1.56-0.89-3.17-1.32-4.66-1.32c-2.3 0-3.19 0.86-3.19 1.92c0 3.1 9.77 0.96 9.77 7.13c0 2.81-2.33 5.21-7.13 5.21c-2.66 0-5.35-0.79-6.84-1.94zm24.7 1.03c-0.77 0.55-1.9 0.82-3.05 0.82c-3.05 0-4.82-1.56-4.82-4.63v-5.3h-1.99v-2.88h1.99v-3.14h3.74v3.14h3.22v2.88h-3.22v5.26c0 1.1 0.6 1.7 1.61 1.7c0.55 0 1.1-0.17 1.51-0.48l1.01 2.64zm13.54-6.74v7.37h-3.5v-1.61c-0.7 1.18-2.04 1.8-3.94 1.8c-3.02 0-4.82-1.68-4.82-3.91c0-2.28 1.61-3.86 5.54-3.86h2.98c0-1.61-0.96-2.54-2.98-2.54c-1.37 0-2.78 0.46-3.72 1.2l-1.34-2.62c1.42-1.01 3.5-1.56 5.57-1.56c3.94 0 6.22 1.82 6.22 5.74zm-3.74 3.29v-1.32h-2.57c-1.75 0-2.3 0.65-2.3 1.51c0 0.94 0.79 1.56 2.11 1.56c1.25 0 2.33-0.58 2.76-1.75zm15.14-9.02v3.46c-0.31-0.02-0.55-0.05-0.84-0.05c-2.06 0-3.43 1.13-3.43 3.6v6.1h-3.74v-12.91h3.58v1.7c0.91-1.25 2.45-1.9 4.44-1.9zm11.02 12.48c-0.77 0.55-1.9 0.82-3.05 0.82c-3.05 0-4.82-1.56-4.82-4.63v-5.3h-1.99v-2.88h1.99v-3.14h3.74v3.14h3.22v2.88h-3.22v5.26c0 1.1 0.6 1.7 1.61 1.7c0.55 0 1.1-0.17 1.51-0.48l1.01 2.64zm15.12-12.29v12.91h-3.55v-1.54c-0.98 1.13-2.42 1.73-4.01 1.73c-3.24 0-5.52-1.82-5.52-5.81v-7.3h3.74v6.74c0 2.16 0.96 3.12 2.62 3.12c1.73 0 2.98-1.1 2.98-3.48v-6.38h3.74zm17.54 6.46c0 4.06-2.81 6.65-6.43 6.65c-1.61 0-2.93-0.5-3.89-1.56v6.02h-3.74v-17.57h3.58v1.49c0.94-1.13 2.33-1.68 4.06-1.68c3.62 0 6.43 2.59 6.43 6.65zm-3.79 0c0-2.23-1.42-3.58-3.29-3.58c-1.87 0-3.29 1.34-3.29 3.58c0 2.23 1.42 3.58 3.29 3.58c1.87 0 3.29-1.34 3.29-3.58z" />
				</g>
			</g>
		</g>
	</g>
</svg>